<svg xmlns="http://www.w3.org/2000/svg" xmlns:xlink="http://www.w3.org/1999/xlink" xmlns:lucid="lucid" width="2963" height="1043"><g transform="translate(-1238.5 -498.4999999649193)" lucid:page-tab-id="BU44X81rFIl0"><path d="M-2823.23 0h8569.7v2066.93h-8569.7z" fill="#fff"/><path d="M1281.67 1540H1246a6 6 0 0 1-6-6V586a6 6 0 0 1 6-6h35.67z" stroke="#ff8f8f" stroke-width="3" fill="#fff"/><path d="M1281.67 580H4194a6 6 0 0 1 6 6v314H1281.67z" stroke="#ff8f8f" stroke-width="3" fill-opacity="0"/><path d="M1281.67 900H4200v320H1281.67zM4200 1220v314a6 6 0 0 1-6 6H1281.67v-320z" stroke="#ff8f8f" stroke-width="3" fill="none"/><use xlink:href="#a" transform="matrix(-1.8369701987210297e-16,-1,1,-1.8369701987210297e-16,1239.9999999999998,1539.9999999999995) translate(260.5246913580247 25.444444444444443)"/><use xlink:href="#b" transform="matrix(-1.8369701987210297e-16,-1,1,-1.8369701987210297e-16,1239.9999999999998,1539.9999999999995) translate(412.0679012345679 25.444444444444443)"/><use xlink:href="#c" transform="matrix(-1.8369701987210297e-16,-1,1,-1.8369701987210297e-16,1239.9999999999998,1539.9999999999995) translate(433.42592592592587 25.444444444444443)"/><use xlink:href="#d" transform="matrix(-1.8369701987210297e-16,-1,1,-1.8369701987210297e-16,1239.9999999999998,1539.9999999999995) translate(519.6604938271605 25.444444444444443)"/><use xlink:href="#e" transform="matrix(-1.8369701987210297e-16,-1,1,-1.8369701987210297e-16,1239.9999999999998,1539.9999999999995) translate(556.6358024691358 25.444444444444443)"/><use xlink:href="#f" transform="matrix(-1.8369701987210297e-16,-1,1,-1.8369701987210297e-16,1281.6666666666665,900) translate(109.47530864197532 25.444444444444443)"/><use xlink:href="#g" transform="matrix(-1.8369701987210297e-16,-1,1,-1.8369701987210297e-16,1281.6666666666665,1219.9999999999998) translate(137.77777777777777 25.444444444444443)"/><use xlink:href="#h" transform="matrix(-1.8369701987210297e-16,-1,1,-1.8369701987210297e-16,1281.6666666666665,1540.0000000000002) translate(14.012345679012356 25.444444444444443)"/><use xlink:href="#i" transform="matrix(-1.8369701987210297e-16,-1,1,-1.8369701987210297e-16,1281.6666666666665,1540.0000000000002) translate(113.76543209876543 25.444444444444443)"/><use xlink:href="#j" transform="matrix(-1.8369701987210297e-16,-1,1,-1.8369701987210297e-16,1281.6666666666665,1540.0000000000002) translate(150.74074074074073 25.444444444444443)"/><path d="M1400 720c0 16.57-13.43 30-30 30s-30-13.43-30-30 13.43-30 30-30 30 13.43 30 30z" stroke="#008573" stroke-width="3" fill="#fff3d9"/><use xlink:href="#k" transform="matrix(1,0,0,1,1340,752) translate(-3.8888888888888857 17.77777777777778)"/><path d="M1460 676a6 6 0 0 1 6-6h128a6 6 0 0 1 6 6v88a6 6 0 0 1-6 6h-128a6 6 0 0 1-6-6z" stroke="#008573" stroke-width="3" fill="#fff"/><use xlink:href="#l" transform="matrix(1,0,0,1,1460,670) translate(15.577916666666669 30.625)"/><use xlink:href="#m" transform="matrix(1,0,0,1,1460,670) translate(16.46333333333333 53.125)"/><use xlink:href="#n" transform="matrix(1,0,0,1,1460,670) translate(97.55708333333334 53.125)"/><use xlink:href="#o" transform="matrix(1,0,0,1,1460,670) translate(14.926875000000004 75.625)"/><path d="M1402.5 720h37.5" stroke="#008573" stroke-width="2" fill="none"/><path d="M1402.53 721h-1.1l.07-.96-.03-1.04h1.06z" stroke="#008573" stroke-width=".05" fill="#008573"/><path d="M1455.26 720l-14.26 4.63v-9.26z" stroke="#008573" stroke-width="2" fill="#008573"/><path d="M1602.5 720h17.5" stroke="#008573" stroke-width="2" fill="none"/><path d="M1602.53 721h-1.03v-2h1.03z" stroke="#008573" stroke-width=".05" fill="#008573"/><path d="M1635.26 720l-14.26 4.63v-9.26z" stroke="#008573" stroke-width="2" fill="#008573"/><path d="M1640 666a6 6 0 0 1 6-6h168a6 6 0 0 1 6 6v108a6 6 0 0 1-6 6h-168a6 6 0 0 1-6-6z" stroke="#008573" stroke-width="3" fill="#fff"/><use xlink:href="#p" transform="matrix(1,0,0,1,1640,660) translate(46.07999999999999 40.65)"/><use xlink:href="#q" transform="matrix(1,0,0,1,1640,660) translate(9.680000000000001 62.25)"/><use xlink:href="#r" transform="matrix(1,0,0,1,1640,660) translate(15.154999999999996 83.85000000000001)"/><use xlink:href="#s" transform="matrix(1,0,0,1,1640,660) translate(45.105 83.85000000000001)"/><path d="M1822.5 720h17.5" stroke="#008573" stroke-width="2" fill="none"/><path d="M1822.53 721h-1.03v-2h1.03z" stroke="#008573" stroke-width=".05" fill="#008573"/><path d="M1855.26 720l-14.26 4.63v-9.26z" stroke="#008573" stroke-width="2" fill="#008573"/><path d="M1860 661a6 6 0 0 1 6-6h128a6 6 0 0 1 6 6v118a6 6 0 0 1-6 6h-128a6 6 0 0 1-6-6z" stroke="#008573" stroke-width="3" fill-opacity="0"/><path d="M1915 743.7h30v30h-30zm15 5.4v19.2m-9.6-9.6h19.2" stroke="#008573" stroke-width="3" fill="none"/><path d="M1868.4 670.8h35v20h-35z" stroke="#008573" stroke-width="3"/><path d="M1868.4 670.8l17.5 10 17.5-10" stroke="#fff" stroke-width="3" fill="none"/><use xlink:href="#t" transform="matrix(1,0,0,1,1860,655) translate(58.055 50.9625)"/><use xlink:href="#s" transform="matrix(1,0,0,1,1860,655) translate(10.12999999999999 72.5625)"/><path d="M1847.5 989.47a6 6 0 0 1 6-6h153a6 6 0 0 1 6 6v88a6 6 0 0 1-6 6h-153a6 6 0 0 1-6-6z" stroke="#008573" stroke-width="3" fill="#fff"/><path d="M1856.15 998.97h35v20h-35z" stroke="#008573" stroke-width="3" fill="#fff"/><path d="M1856.15 998.97l17.5 10 17.5-10" stroke="#008573" stroke-width="3" fill="none"/><use xlink:href="#u" transform="matrix(1,0,0,1,1847.5,983.4645669291338) translate(65.055 42.525)"/><use xlink:href="#s" transform="matrix(1,0,0,1,1847.5,983.4645669291338) translate(22.62999999999999 64.125)"/><path d="M1930 787.5v175.96" stroke="#008573" stroke-width="2" fill="none"/><path d="M1931 787.53h-2v-1.03h2z" stroke="#008573" stroke-width=".05" fill="#008573"/><path d="M1930 978.73l-4.63-14.27h9.27z" stroke="#008573" stroke-width="2" fill="#008573"/><path d="M2060 989.47a6 6 0 0 1 6-6h128a6 6 0 0 1 6 6V1074a6 6 0 0 1-6 6h-128a6 6 0 0 1-6-6z" fill="#fff"/><path d="M2081.24 983.47h6.1m12.18 0h6.1m12.2 0h6.1m12.17 0h6.1m12.18 0h6.1m12.2 0h6.08m12.2 0h3.04l.94.07.9.22.88.36.8.5.72.6.6.72.5.8.37.87.23.93.07.94v2.8m0 11.28v5.64m0 11.26v5.64m0 11.27v5.63m0 11.28v5.63m0 11.28v2.82l-.07.94-.22.9-.35.88-.5.8-.6.72-.72.6-.8.5-.88.37-.9.23-.95.07h-3.05m-12.2 0h-6.08m-12.2 0h-6.1m-12.18 0h-6.1m-12.2 0h-6.1m-12.18 0h-6.1m-12.2 0h-6.08m-12.2 0H2066l-.94-.07-.9-.22-.88-.35-.8-.5-.72-.6-.6-.72-.5-.8-.37-.88-.23-.9-.07-.95v-2.82m0-11.27v-5.63m0-11.27v-5.63m0-11.27v-5.64m0-11.27v-5.65m0-11.27v-2.8l.07-.95.22-.92.35-.86.5-.8.6-.72.72-.6.8-.5.88-.36.9-.22.95-.07h3.05" stroke="#008573" stroke-width="3" fill="none"/><use xlink:href="#v" transform="matrix(1,0,0,1,2060,983.4645669291338) translate(22.10499999999999 41.68125)"/><use xlink:href="#w" transform="matrix(1,0,0,1,2060,983.4645669291338) translate(24.754999999999995 63.28125)"/><path d="M2015 1033.46h25" stroke="#008573" stroke-width="2" fill="none"/><path d="M2015.03 1034.46H2014v-2h1.03z" stroke="#008573" stroke-width=".05" fill="#008573"/><path d="M2055.26 1033.46l-14.26 4.64v-9.27z" stroke="#008573" stroke-width="2" fill="#008573"/><path d="M2240 977.73a6 6 0 0 1 6-6h148a6 6 0 0 1 6 6v108a6 6 0 0 1-6 6h-148a6 6 0 0 1-6-6z" stroke="#008573" stroke-width="3" fill="#fff"/><use xlink:href="#x" transform="matrix(1,0,0,1,2240,971.732283464567) translate(35.07999999999999 29.4)"/><use xlink:href="#y" transform="matrix(1,0,0,1,2240,971.732283464567) translate(26.429999999999993 51)"/><use xlink:href="#z" transform="matrix(1,0,0,1,2240,971.732283464567) translate(121.93 51)"/><use xlink:href="#A" transform="matrix(1,0,0,1,2240,971.732283464567) translate(32.07999999999999 72.60000000000001)"/><use xlink:href="#B" transform="matrix(1,0,0,1,2240,971.732283464567) translate(21.254999999999995 94.20000000000002)"/><path d="M2202.5 1031.73h17.5" stroke="#008573" stroke-width="2" fill="none"/><path d="M2202.53 1032.73h-1.03v-2h1.03z" stroke="#008573" stroke-width=".05" fill="#008573"/><path d="M2235.26 1031.73l-14.26 4.64v-9.27z" stroke="#008573" stroke-width="2" fill="#008573"/><path d="M2382.5 637.5L2420 600l37.5 37.5L2420 675z" stroke="#008573" stroke-width="3" fill="#fff3d9"/><path d="M2405 622.5l30 30m-30 0l30-30" stroke="#008573" stroke-width="3" fill="none"/><use xlink:href="#C" transform="matrix(1,0,0,1,2382.5,675) translate(-15.338541666666664 15)"/><use xlink:href="#D" transform="matrix(1,0,0,1,2382.5,675) translate(-30.15625 37.5)"/><path d="M2361.88 638.5h-35.84l-.82.07-.76.18-.73.3-.67.4-.6.52-.5.6-.4.66-.3.73-.2.76-.06.82v325.7h-2V643.45l.08-1.06.26-1.06.42-1.02.57-.94.72-.83.83-.72.94-.57 1.02-.42 1.06-.26 1.06-.08h35.92z" stroke="#008573" stroke-width=".05" fill="#008573"/><path d="M2321 970.23h-2v-1.02h2z" fill="#008573"/><path d="M2321.03 970.26h-2.06v-1.08h2.06zm-2-1.03v.98h1.94v-.97z" stroke="#008573" stroke-width=".05" fill="#008573"/><path d="M2377.14 637.5l-14.26 4.63v-9.26z" fill="#008573"/><path d="M2380.38 637.5l-18.5 6v-12zm-16.5 3.26l10.03-3.26-10.02-3.26z" stroke="#008573" stroke-width=".05" fill="#008573"/><path d="M2580 506a6 6 0 0 1 6-6h168a6 6 0 0 1 6 6v43a6 6 0 0 1-6 6h-168a6 6 0 0 1-6-6z" stroke="#008573" stroke-width="3" fill="#fff"/><use xlink:href="#E" transform="matrix(1,0,0,1,2580,500) translate(16.62999999999999 31.5875)"/><use xlink:href="#F" transform="matrix(1,0,0,1,2580,500) translate(48.57999999999999 31.5875)"/><path d="M2421 596.88h-2v-58.7h2zm139-68.38h-44.08v-2H2560z" stroke="#e81313" stroke-width=".05" fill="#e81313"/><path d="M2421 598.88l-1-1-1 1v-2.03h2z" fill="#e81313"/><path d="M2421.03 598.94l-1.03-1.03-1.03 1.04v-2.1h2.06zm-2-2.06v1.94l.97-.98.97.98v-1.94z" stroke="#e81313" stroke-width=".05" fill="#e81313"/><path d="M2575.26 527.5l-14.26 4.63v-9.26z" fill="#e81313"/><path d="M2578.5 527.5l-18.5 6v-12zm-16.5 3.26l10.03-3.26-10.03-3.26z" stroke="#e81313" stroke-width=".05" fill="#e81313"/><use xlink:href="#G" transform="matrix(1,0,0,1,2364.0647427874883,516.8333333333334) translate(0.0049999999999954525 14.222222222222223)"/><use xlink:href="#H" transform="matrix(1,0,0,1,2364.0647427874883,516.8333333333334) translate(31.560555555555553 14.222222222222223)"/><path d="M2580 789v2h-56.18v-2zm-159-9.67h-2v-101.2h2z" stroke="#008a0e" stroke-width=".05" fill="#008a0e"/><path d="M2421 678.15h-2v-2.03l1 1 1-1z" fill="#008a0e"/><path d="M2421.03 678.17h-2.06v-2.1l1.03 1.02 1.03-1.04zm-2-.05h1.94v-1.94l-.97.98-.97-.98z" stroke="#008a0e" stroke-width=".05" fill="#008a0e"/><path d="M2595.26 790l-14.26 4.63v-9.26z" fill="#008a0e"/><path d="M2598.5 790l-18.5 6v-12zm-16.5 3.26l10.03-3.26-10.03-3.26z" stroke="#008a0e" stroke-width=".05" fill="#008a0e"/><use xlink:href="#I" transform="matrix(1,0,0,1,2381.7978466998175,779.3333333333334) translate(0.0049999999999954525 14.222222222222223)"/><use xlink:href="#J" transform="matrix(1,0,0,1,2381.7978466998175,779.3333333333334) translate(21.733395061728395 14.222222222222223)"/><path d="M2650 1026a6 6 0 0 1 6-6h128a6 6 0 0 1 6 6v88a6 6 0 0 1-6 6h-128a6 6 0 0 1-6-6z" stroke="#008573" stroke-width="3" fill="#fff"/><path d="M2658.4 1035.5h35v20h-35z" stroke="#008573" stroke-width="3"/><path d="M2658.4 1035.5l17.5 10 17.5-10" stroke="#fff" stroke-width="3" fill="none"/><use xlink:href="#K" transform="matrix(1,0,0,1,2650,1020) translate(25.57999999999999 55.41)"/><use xlink:href="#L" transform="matrix(1,0,0,1,2650,1020) translate(13.104999999999992 77.01)"/><use xlink:href="#M" transform="matrix(1,0,0,1,2650,1020) translate(91.005 77.01)"/><path d="M2662.5 790h51.5a6 6 0 0 1 6 6v204" stroke="#000" stroke-width="2" fill="none"/><path d="M2662.53 791h-1.1l.07-.96-.03-1.04h1.06z" stroke="#000" stroke-width=".05"/><path d="M2720 1015.26l-4.64-14.26h9.28z" stroke="#000" stroke-width="2"/><path d="M2840 696a6 6 0 0 1 6-6h148a6 6 0 0 1 6 6v58a6 6 0 0 1-6 6h-148a6 6 0 0 1-6-6z" stroke="#008573" stroke-width="3" fill="#fff"/><path d="M2844 700a6 6 0 0 1 6-6h140a6 6 0 0 1 6 6v50a6 6 0 0 1-6 6h-140a6 6 0 0 1-6-6z" stroke="#008573" stroke-width="3" fill="#fff"/><path d="M2844 700a6 6 0 0 1 6-6h140a6 6 0 0 1 6 6v50a6 6 0 0 1-6 6h-140a6 6 0 0 1-6-6z" fill="none"/><use xlink:href="#N" transform="matrix(1,0,0,1,2840,690) translate(36.07999999999999 27.525)"/><use xlink:href="#O" transform="matrix(1,0,0,1,2840,690) translate(33.72999999999999 49.125)"/><path d="M2792.5 1070H2914a6 6 0 0 0 6-6V780" stroke="#000" stroke-width="2" fill="none"/><path d="M2792.53 1071h-1.03v-2h1.03z" stroke="#000" stroke-width=".05"/><path d="M2920 764.74l4.64 14.26h-9.28z" stroke="#000" stroke-width="2"/><path d="M2960 1041a6 6 0 0 1 6-6h148a6 6 0 0 1 6 6v58a6 6 0 0 1-6 6h-148a6 6 0 0 1-6-6z" stroke="#008573" stroke-width="3" fill="#fff"/><use xlink:href="#P" transform="matrix(1,0,0,1,2960,1035) translate(15.305000000000001 27.525)"/><use xlink:href="#Q" transform="matrix(1,0,0,1,2960,1035) translate(34.754999999999995 49.125)"/><path d="M3002.5 725h31.5a6 6 0 0 1 6 6v284" stroke="#000" stroke-width="2" fill="none"/><path d="M3002.53 726h-1.03v-2h1.03z" stroke="#000" stroke-width=".05"/><path d="M3040 1030.26l-4.64-14.26h9.28z" stroke="#000" stroke-width="2"/><path d="M3160 1031a6 6 0 0 1 6-6h148a6 6 0 0 1 6 6v78a6 6 0 0 1-6 6h-148a6 6 0 0 1-6-6z" stroke="#008573" stroke-width="3" fill="#fff"/><use xlink:href="#R" transform="matrix(1,0,0,1,3160,1025) translate(34.254999999999995 25.65)"/><use xlink:href="#S" transform="matrix(1,0,0,1,3160,1025) translate(26.07999999999999 47.25)"/><use xlink:href="#T" transform="matrix(1,0,0,1,3160,1025) translate(108.98 47.25)"/><use xlink:href="#U" transform="matrix(1,0,0,1,3160,1025) translate(21.12999999999999 68.85000000000001)"/><path d="M3122.5 1070h16.5a1 1 0 0 0 1-1v-1" stroke="#000" stroke-width="2" fill="none"/><path d="M3122.53 1071h-1.03v-2h1.03z" stroke="#000" stroke-width=".05"/><path d="M3155.26 1068l-14.26 4.64v-9.27z" stroke="#000" stroke-width="2"/><path d="M3160 726a6 6 0 0 1 6-6h148a6 6 0 0 1 6 6v58a6 6 0 0 1-6 6h-148a6 6 0 0 1-6-6z" stroke="#008573" stroke-width="3" fill="#fff"/><use xlink:href="#V" transform="matrix(1,0,0,1,3160,720) translate(15.604999999999999 27.525)"/><use xlink:href="#Q" transform="matrix(1,0,0,1,3160,720) translate(34.754999999999995 49.125)"/><path d="M3240 1022.5V810" stroke="#000" stroke-width="2" fill="none"/><path d="M3241 1023.5h-2v-1.03h2z" stroke="#000" stroke-width=".05"/><path d="M3240 794.74l4.64 14.26h-9.28z" stroke="#000" stroke-width="2"/><path d="M3360 728.5a6 6 0 0 1 6-6h148a6 6 0 0 1 6 6v53a6 6 0 0 1-6 6h-148a6 6 0 0 1-6-6z" fill="#fff"/><path d="M3381.42 722.5h6.16m12.34 0h6.16m12.34 0h6.16m12.34 0h6.16m12.34 0h6.16m12.34 0h6.16m12.34 0h6.16m12.34 0h3.08l.94.07.9.22.88.35.8.5.72.6.6.72.5.8.37.88.23.9.07.95v2.94m0 11.78v5.9m0 11.77v5.88m0 11.78v2.94l-.07.94-.22.9-.35.88-.5.8-.6.72-.72.6-.8.5-.88.37-.9.23-.95.07h-3.08m-12.34 0h-6.16m-12.34 0h-6.16m-12.34 0h-6.16m-12.34 0h-6.16m-12.34 0h-6.16m-12.34 0h-6.16m-12.34 0h-6.16m-12.34 0H3366l-.94-.07-.9-.22-.88-.35-.8-.5-.72-.6-.6-.72-.5-.8-.37-.88-.23-.9-.07-.95v-2.94m0-11.78v-5.9m0-11.77v-5.88m0-11.78v-2.94l.07-.94.22-.9.35-.88.5-.8.6-.72.72-.6.8-.5.88-.37.9-.23.95-.07h3.08" stroke="#008573" stroke-width="3" fill="none"/><g><use xlink:href="#W" transform="matrix(1,0,0,1,3360,722.5) translate(22.60499999999999 36.74375)"/></g><path d="M3322.5 755h17.5" stroke="#000" stroke-width="2" fill="none"/><path d="M3322.53 756h-1.03v-2h1.03z" stroke="#000" stroke-width=".05"/><path d="M3355.26 755l-14.26 4.63v-9.26z" stroke="#000" stroke-width="2"/><path d="M2660 790c0 16.57-13.43 30-30 30s-30-13.43-30-30 13.43-30 30-30 30 13.43 30 30z" stroke="#008573" stroke-width="3" fill="#fff3d9"/><path d="M2657 790c0 14.9-12.1 27-27 27s-27-12.1-27-27 12.1-27 27-27 27 12.1 27 27z" stroke="#008573" stroke-width="3" fill="#fff3d9"/><path d="M2630 772l-18 30h36z" stroke="#008573" stroke-width="3" fill="#fff"/><g><use xlink:href="#X" transform="matrix(1,0,0,1,2600,822) translate(-27.716049382716044 17.77777777777778)"/><use xlink:href="#Y" transform="matrix(1,0,0,1,2600,822) translate(-15 44.44444444444444)"/><use xlink:href="#Z" transform="matrix(1,0,0,1,2600,822) translate(7.191358024691361 71.11111111111111)"/></g><path d="M3560 728.5a6 6 0 0 1 6-6h148a6 6 0 0 1 6 6v53a6 6 0 0 1-6 6h-148a6 6 0 0 1-6-6z" stroke="#008573" stroke-width="3" fill="#fff"/><g><use xlink:href="#aa" transform="matrix(1,0,0,1,3560,722.5) translate(25.779999999999987 24.55625)"/><use xlink:href="#ab" transform="matrix(1,0,0,1,3560,722.5) translate(22.329999999999984 46.15625)"/></g><path d="M3522.5 755h17.5" stroke="#000" stroke-width="2" fill="none"/><path d="M3522.53 756h-1.03v-2h1.03z" stroke="#000" stroke-width=".05"/><path d="M3555.26 755l-14.26 4.63v-9.26z" stroke="#000" stroke-width="2"/><path d="M3560 1366a6 6 0 0 1 6-6h148a6 6 0 0 1 6 6v61.27a6 6 0 0 1-6 6h-148a6 6 0 0 1-6-6z" stroke="#008573" stroke-width="3" fill="#fff"/><g><use xlink:href="#ac" transform="matrix(1,0,0,1,3560,1360) translate(32.10499999999999 30.5875)"/><use xlink:href="#ad" transform="matrix(1,0,0,1,3560,1360) translate(15.329999999999993 52.1875)"/></g><path d="M3760 1355.9a6 6 0 0 1 6-6h168a6 6 0 0 1 6 6v71.37a6 6 0 0 1-6 6h-168a6 6 0 0 1-6-6z" fill="#fff"/><path d="M3781.56 1349.9h6.22m12.44 0h6.22m12.45 0h6.2m12.46 0h6.22m12.44 0h6.22m12.45 0h6.2m12.46 0h6.22m12.44 0h6.22m12.45 0h3.1l.94.08.9.22.88.36.8.5.72.6.6.72.5.8.37.88.23.9.07.95v2.98m0 11.9v5.94m0 11.9v5.95m0 11.9v5.94m0 11.9v2.97l-.07.94-.22.93-.35.87-.5.8-.6.72-.72.6-.8.5-.88.36-.9.22-.95.07h-3.1m-12.46 0h-6.22m-12.44 0h-6.22m-12.45 0h-6.2m-12.46 0h-6.22m-12.44 0h-6.22m-12.45 0h-6.2m-12.46 0h-6.22m-12.44 0h-6.22m-12.45 0h-3.1l-.94-.07-.9-.22-.88-.36-.8-.5-.72-.6-.6-.72-.5-.8-.37-.87-.23-.92-.07-.93v-2.97m0-11.9v-5.94m0-11.9v-5.94m0-11.9v-5.94m0-11.9v-2.97l.07-.93.22-.9.35-.88.5-.82.6-.7.72-.62.8-.5.88-.36.9-.22.95-.07h3.1" stroke="#008573" stroke-width="3" fill="none"/><g><use xlink:href="#ae" transform="matrix(1,0,0,1,3760,1349.9096164883974) translate(43.36919753086419 33.52777777777778)"/><use xlink:href="#af" transform="matrix(1,0,0,1,3760,1349.9096164883974) translate(17.31981481481484 60.19444444444445)"/></g><path d="M3722.5 1396.64h17.5" stroke="#000" stroke-width="2" fill="none"/><path d="M3722.53 1397.64h-1.03v-2h1.03z" stroke="#000" stroke-width=".05"/><path d="M3755.26 1396.64l-14.26 4.63V1392z" stroke="#000" stroke-width="2"/><path d="M3640 790v550" stroke="#000" stroke-width="2" fill="none"/><path d="M3641 790.03h-2V789h2z" stroke="#000" stroke-width=".05"/><path d="M3640 1355.26l-4.64-14.26h9.28z" stroke="#000" stroke-width="2"/><path d="M4060 1396.64c0 16.56-13.43 30-30 30s-30-13.44-30-30c0-16.57 13.43-30 30-30s30 13.43 30 30z" stroke="#008573" stroke-width="7" fill="#fcfcca"/><g><use xlink:href="#ag" transform="matrix(1,0,0,1,4000,1428.6365388294657) translate(12.160493827160494 17.77777777777778)"/></g><path d="M3942.5 1391.6h26.56a.16.16 0 0 0 .16-.17.16.16 0 0 1 .16-.16h9.05" stroke="#000" stroke-width="2" fill="none"/><path d="M3942.53 1392.6h-1.03v-2h1.03z" stroke="#000" stroke-width=".05"/><path d="M3993.7 1391.27l-14.27 4.63v-9.27z" stroke="#000" stroke-width="2"/><defs><path fill="#008573" d="M24 0v-248h52V0H24" id="ah"/><path fill="#008573" d="M175 0L67-191c6 58 2 128 3 191H24v-248h59L193-55c-6-58-2-129-3-193h46V0h-61" id="ai"/><path fill="#008573" d="M169-182c-1-43-94-46-97-3 18 66 151 10 154 114 3 95-165 93-204 36-6-8-10-19-12-30l50-8c3 46 112 56 116 5-17-69-150-10-154-114-4-87 153-88 188-35 5 8 8 18 10 28" id="aj"/><path fill="#008573" d="M67-125c0 53 21 87 73 88 37 1 54-22 65-47l45 17C233-25 199 4 140 4 58 4 20-42 15-125 8-235 124-281 211-232c18 10 29 29 36 50l-46 12c-8-25-30-41-62-41-52 0-71 34-72 86" id="ak"/><path fill="#008573" d="M240-174c0 40-23 61-54 70L253 0h-59l-57-94H76V0H24v-248c93 4 217-23 216 74zM76-134c48-2 112 12 112-38 0-48-66-32-112-35v73" id="al"/><path fill="#008573" d="M24-248c93 1 206-16 204 79-1 75-69 88-152 82V0H24v-248zm52 121c47 0 100 7 100-41 0-47-54-39-100-39v80" id="am"/><path fill="#008573" d="M110-269v-5l44-45h46v8l-60 42h-30zm30 18c80 0 125 45 125 126S219 4 139 4C58 4 15-44 15-125s44-126 125-126zm-1 214c52 0 73-35 73-88 0-50-21-86-72-86-52 0-73 35-73 86s22 88 72 88" id="an"/><g id="a"><use transform="matrix(0.06172839506172839,0,0,0.06172839506172839,0,0)" xlink:href="#ah"/><use transform="matrix(0.06172839506172839,0,0,0.06172839506172839,6.172839506172839,0)" xlink:href="#ai"/><use transform="matrix(0.06172839506172839,0,0,0.06172839506172839,22.160493827160494,0)" xlink:href="#aj"/><use transform="matrix(0.06172839506172839,0,0,0.06172839506172839,36.9753086419753,0)" xlink:href="#ak"/><use transform="matrix(0.06172839506172839,0,0,0.06172839506172839,52.962962962962955,0)" xlink:href="#al"/><use transform="matrix(0.06172839506172839,0,0,0.06172839506172839,68.9506172839506,0)" xlink:href="#ah"/><use transform="matrix(0.06172839506172839,0,0,0.06172839506172839,75.12345679012344,0)" xlink:href="#am"/><use transform="matrix(0.06172839506172839,0,0,0.06172839506172839,89.93827160493825,0)" xlink:href="#ak"/><use transform="matrix(0.06172839506172839,0,0,0.06172839506172839,105.92592592592591,0)" xlink:href="#ah"/><use transform="matrix(0.06172839506172839,0,0,0.06172839506172839,112.09876543209874,0)" xlink:href="#an"/><use transform="matrix(0.06172839506172839,0,0,0.06172839506172839,129.38271604938268,0)" xlink:href="#ai"/></g><path fill="#008573" d="M199 0l-22-63H83L61 0H9l90-248h61L250 0h-51zm-33-102l-36-108c-10 38-24 72-36 108h72" id="ao"/><use transform="matrix(0.06172839506172839,0,0,0.06172839506172839,0,0)" xlink:href="#ao" id="b"/><path fill="#008573" d="M238-95c0 69-44 99-111 99C63 4 22-25 22-93v-155h51v151c-1 38 19 59 55 60 90 1 49-130 58-211h52v153" id="ap"/><path fill="#008573" d="M140-251c80 0 125 45 125 126S219 4 139 4C58 4 15-44 15-125s44-126 125-126zm-1 214c52 0 73-35 73-88 0-50-21-86-72-86-52 0-73 35-73 86s22 88 72 88" id="aq"/><g id="c"><use transform="matrix(0.06172839506172839,0,0,0.06172839506172839,0,0)" xlink:href="#ak"/><use transform="matrix(0.06172839506172839,0,0,0.06172839506172839,15.987654320987653,0)" xlink:href="#ap"/><use transform="matrix(0.06172839506172839,0,0,0.06172839506172839,31.975308641975307,0)" xlink:href="#al"/><use transform="matrix(0.06172839506172839,0,0,0.06172839506172839,47.96296296296296,0)" xlink:href="#aj"/><use transform="matrix(0.06172839506172839,0,0,0.06172839506172839,62.77777777777777,0)" xlink:href="#aq"/></g><path fill="#008573" d="M24-248c120-7 223 5 221 122C244-46 201 0 124 0H24v-248zM76-40c74 7 117-18 117-86 0-67-45-88-117-82v168" id="ar"/><path fill="#008573" d="M24 0v-248h195v40H76v63h132v40H76v65h150V0H24" id="as"/><g id="d"><use transform="matrix(0.06172839506172839,0,0,0.06172839506172839,0,0)" xlink:href="#ar"/><use transform="matrix(0.06172839506172839,0,0,0.06172839506172839,15.987654320987653,0)" xlink:href="#as"/></g><path fill="#008573" d="M136-208V0H84v-208H4v-40h212v40h-80" id="at"/><path fill="#008573" d="M230 0l2-204L168 0h-37L68-204 70 0H24v-248h70l56 185 57-185h69V0h-46" id="au"/><g id="e"><use transform="matrix(0.06172839506172839,0,0,0.06172839506172839,0,0)" xlink:href="#at"/><use transform="matrix(0.06172839506172839,0,0,0.06172839506172839,13.518518518518517,0)" xlink:href="#as"/><use transform="matrix(0.06172839506172839,0,0,0.06172839506172839,28.33333333333333,0)" xlink:href="#au"/><use transform="matrix(0.06172839506172839,0,0,0.06172839506172839,46.79012345679011,0)" xlink:href="#am"/><use transform="matrix(0.06172839506172839,0,0,0.06172839506172839,61.60493827160492,0)" xlink:href="#aq"/><use transform="matrix(0.06172839506172839,0,0,0.06172839506172839,78.88888888888887,0)" xlink:href="#al"/><use transform="matrix(0.06172839506172839,0,0,0.06172839506172839,94.87654320987653,0)" xlink:href="#ao"/><use transform="matrix(0.06172839506172839,0,0,0.06172839506172839,110.86419753086419,0)" xlink:href="#ar"/><use transform="matrix(0.06172839506172839,0,0,0.06172839506172839,126.85185185185185,0)" xlink:href="#ao"/></g><path fill="#008573" d="M232-93c-1 65-40 97-104 97C67 4 28-28 28-90v-158h33c8 89-33 224 67 224 102 0 64-133 71-224h33v155" id="av"/><path fill="#008573" d="M185-189c-5-48-123-54-124 2 14 75 158 14 163 119 3 78-121 87-175 55-17-10-28-26-33-46l33-7c5 56 141 63 141-1 0-78-155-14-162-118-5-82 145-84 179-34 5 7 8 16 11 25" id="aw"/><path fill="#008573" d="M205 0l-28-72H64L36 0H1l101-248h38L239 0h-34zm-38-99l-47-123c-12 45-31 82-46 123h93" id="ax"/><path fill="#008573" d="M233-177c-1 41-23 64-60 70L243 0h-38l-65-103H63V0H30v-248c88 3 205-21 203 71zM63-129c60-2 137 13 137-47 0-61-80-42-137-45v92" id="ay"/><path fill="#008573" d="M33 0v-248h34V0H33" id="az"/><path fill="#008573" d="M140-251c81 0 123 46 123 126C263-46 219 4 140 4 59 4 17-45 17-125s42-126 123-126zm0 227c63 0 89-41 89-101s-29-99-89-99c-61 0-89 39-89 99S79-25 140-24" id="aA"/><g id="f"><use transform="matrix(0.06172839506172839,0,0,0.06172839506172839,0,0)" xlink:href="#av"/><use transform="matrix(0.06172839506172839,0,0,0.06172839506172839,15.987654320987653,0)" xlink:href="#aw"/><use transform="matrix(0.06172839506172839,0,0,0.06172839506172839,30.80246913580247,0)" xlink:href="#av"/><use transform="matrix(0.06172839506172839,0,0,0.06172839506172839,46.79012345679012,0)" xlink:href="#ax"/><use transform="matrix(0.06172839506172839,0,0,0.06172839506172839,61.60493827160494,0)" xlink:href="#ay"/><use transform="matrix(0.06172839506172839,0,0,0.06172839506172839,77.5925925925926,0)" xlink:href="#az"/><use transform="matrix(0.06172839506172839,0,0,0.06172839506172839,83.76543209876543,0)" xlink:href="#aA"/></g><g id="g"><use transform="matrix(0.06172839506172839,0,0,0.06172839506172839,0,0)" xlink:href="#aw"/><use transform="matrix(0.06172839506172839,0,0,0.06172839506172839,14.814814814814813,0)" xlink:href="#aw"/><use transform="matrix(0.06172839506172839,0,0,0.06172839506172839,29.629629629629626,0)" xlink:href="#ax"/></g><path fill="#008573" d="M212-179c-10-28-35-45-73-45-59 0-87 40-87 99 0 60 29 101 89 101 43 0 62-24 78-52l27 14C228-24 195 4 139 4 59 4 22-46 18-125c-6-104 99-153 187-111 19 9 31 26 39 46" id="aB"/><path fill="#008573" d="M30 0v-248h187v28H63v79h144v27H63v87h162V0H30" id="aC"/><path fill="#008573" d="M190 0L58-211 59 0H30v-248h39L202-35l-2-213h31V0h-41" id="aD"/><path fill="#008573" d="M127-220V0H93v-220H8v-28h204v28h-85" id="aE"/><g id="h"><use transform="matrix(0.06172839506172839,0,0,0.06172839506172839,0,0)" xlink:href="#aB"/><use transform="matrix(0.06172839506172839,0,0,0.06172839506172839,15.987654320987653,0)" xlink:href="#aC"/><use transform="matrix(0.06172839506172839,0,0,0.06172839506172839,30.80246913580247,0)" xlink:href="#aD"/><use transform="matrix(0.06172839506172839,0,0,0.06172839506172839,46.79012345679012,0)" xlink:href="#aE"/><use transform="matrix(0.06172839506172839,0,0,0.06172839506172839,60.30864197530864,0)" xlink:href="#ay"/><use transform="matrix(0.06172839506172839,0,0,0.06172839506172839,76.29629629629629,0)" xlink:href="#aA"/></g><path fill="#008573" d="M30-248c118-7 216 8 213 122C240-48 200 0 122 0H30v-248zM63-27c89 8 146-16 146-99s-60-101-146-95v194" id="aF"/><g id="i"><use transform="matrix(0.06172839506172839,0,0,0.06172839506172839,0,0)" xlink:href="#aF"/><use transform="matrix(0.06172839506172839,0,0,0.06172839506172839,15.987654320987653,0)" xlink:href="#aC"/></g><g id="j"><use transform="matrix(0.06172839506172839,0,0,0.06172839506172839,0,0)" xlink:href="#aC"/><use transform="matrix(0.06172839506172839,0,0,0.06172839506172839,14.814814814814813,0)" xlink:href="#aw"/><use transform="matrix(0.06172839506172839,0,0,0.06172839506172839,29.629629629629626,0)" xlink:href="#aE"/><use transform="matrix(0.06172839506172839,0,0,0.06172839506172839,43.148148148148145,0)" xlink:href="#av"/><use transform="matrix(0.06172839506172839,0,0,0.06172839506172839,59.1358024691358,0)" xlink:href="#aF"/><use transform="matrix(0.06172839506172839,0,0,0.06172839506172839,75.12345679012346,0)" xlink:href="#az"/><use transform="matrix(0.06172839506172839,0,0,0.06172839506172839,81.29629629629629,0)" xlink:href="#ax"/><use transform="matrix(0.06172839506172839,0,0,0.06172839506172839,96.1111111111111,0)" xlink:href="#aD"/><use transform="matrix(0.06172839506172839,0,0,0.06172839506172839,112.09876543209876,0)" xlink:href="#aE"/><use transform="matrix(0.06172839506172839,0,0,0.06172839506172839,125.61728395061728,0)" xlink:href="#aC"/><use transform="matrix(0.06172839506172839,0,0,0.06172839506172839,140.4320987654321,0)" xlink:href="#aw"/></g><g id="k"><use transform="matrix(0.06172839506172839,0,0,0.06172839506172839,0,0)" xlink:href="#az"/><use transform="matrix(0.06172839506172839,0,0,0.06172839506172839,6.172839506172839,0)" xlink:href="#aD"/><use transform="matrix(0.06172839506172839,0,0,0.06172839506172839,22.160493827160494,0)" xlink:href="#az"/><use transform="matrix(0.06172839506172839,0,0,0.06172839506172839,28.333333333333332,0)" xlink:href="#aB"/><use transform="matrix(0.06172839506172839,0,0,0.06172839506172839,44.32098765432099,0)" xlink:href="#az"/><use transform="matrix(0.06172839506172839,0,0,0.06172839506172839,50.49382716049383,0)" xlink:href="#aA"/></g><path fill="#008573" d="M137 0h-34L2-248h35l83 218 83-218h36" id="aG"/><path fill="#008573" d="M143 4C61 4 22-44 18-125c-5-107 100-154 193-111 17 8 29 25 37 43l-32 9c-13-25-37-40-76-40-61 0-88 39-88 99 0 61 29 100 91 101 35 0 62-11 79-27v-45h-74v-28h105v86C228-13 192 4 143 4" id="aH"/><g id="l"><use transform="matrix(0.052083333333333336,0,0,0.052083333333333336,0,0)" xlink:href="#ax"/><use transform="matrix(0.052083333333333336,0,0,0.052083333333333336,11.09375,0)" xlink:href="#aG"/><use transform="matrix(0.052083333333333336,0,0,0.052083333333333336,23.59375,0)" xlink:href="#aC"/><use transform="matrix(0.052083333333333336,0,0,0.052083333333333336,36.09375,0)" xlink:href="#ay"/><use transform="matrix(0.052083333333333336,0,0,0.052083333333333336,49.583333333333336,0)" xlink:href="#az"/><use transform="matrix(0.052083333333333336,0,0,0.052083333333333336,54.79166666666667,0)" xlink:href="#aH"/><use transform="matrix(0.052083333333333336,0,0,0.052083333333333336,69.375,0)" xlink:href="#av"/><use transform="matrix(0.052083333333333336,0,0,0.052083333333333336,82.86458333333333,0)" xlink:href="#ax"/><use transform="matrix(0.052083333333333336,0,0,0.052083333333333336,95.36458333333333,0)" xlink:href="#ay"/></g><path fill="#008573" d="M63-220v92h138v28H63V0H30v-248h175v28H63" id="aI"/><path fill="#008573" d="M197 0v-115H63V0H30v-248h33v105h134v-105h34V0h-34" id="aJ"/><g id="m"><use transform="matrix(0.052083333333333336,0,0,0.052083333333333336,0,0)" xlink:href="#aI"/><use transform="matrix(0.052083333333333336,0,0,0.052083333333333336,11.40625,0)" xlink:href="#aC"/><use transform="matrix(0.052083333333333336,0,0,0.052083333333333336,23.90625,0)" xlink:href="#aB"/><use transform="matrix(0.052083333333333336,0,0,0.052083333333333336,37.395833333333336,0)" xlink:href="#aJ"/><use transform="matrix(0.052083333333333336,0,0,0.052083333333333336,50.88541666666667,0)" xlink:href="#ax"/><use transform="matrix(0.052083333333333336,0,0,0.052083333333333336,63.38541666666667,0)" xlink:href="#aw"/></g><g id="n"><use transform="matrix(0.052083333333333336,0,0,0.052083333333333336,0,0)" xlink:href="#aF"/><use transform="matrix(0.052083333333333336,0,0,0.052083333333333336,13.489583333333334,0)" xlink:href="#aC"/></g><path fill="#008573" d="M30-248c87 1 191-15 191 75 0 78-77 80-158 76V0H30v-248zm33 125c57 0 124 11 124-50 0-59-68-47-124-48v98" id="aK"/><path fill="#008573" d="M109-269c9-18 26-28 38-43h37v5l-55 38h-20zm31 18c81 0 123 46 123 126C263-46 219 4 140 4 59 4 17-45 17-125s42-126 123-126zm0 227c63 0 89-41 89-101s-29-99-89-99c-61 0-89 39-89 99S79-25 140-24" id="aL"/><g id="o"><use transform="matrix(0.052083333333333336,0,0,0.052083333333333336,0,0)" xlink:href="#az"/><use transform="matrix(0.052083333333333336,0,0,0.052083333333333336,5.208333333333334,0)" xlink:href="#aD"/><use transform="matrix(0.052083333333333336,0,0,0.052083333333333336,18.697916666666668,0)" xlink:href="#aB"/><use transform="matrix(0.052083333333333336,0,0,0.052083333333333336,32.1875,0)" xlink:href="#ay"/><use transform="matrix(0.052083333333333336,0,0,0.052083333333333336,45.677083333333336,0)" xlink:href="#az"/><use transform="matrix(0.052083333333333336,0,0,0.052083333333333336,50.88541666666667,0)" xlink:href="#aK"/><use transform="matrix(0.052083333333333336,0,0,0.052083333333333336,63.38541666666667,0)" xlink:href="#aB"/><use transform="matrix(0.052083333333333336,0,0,0.052083333333333336,76.875,0)" xlink:href="#az"/><use transform="matrix(0.052083333333333336,0,0,0.052083333333333336,82.08333333333333,0)" xlink:href="#aL"/><use transform="matrix(0.052083333333333336,0,0,0.052083333333333336,96.66666666666666,0)" xlink:href="#aD"/></g><path fill="#008573" d="M30 0v-248h33v221h125V0H30" id="aM"/><path fill="#008573" d="M209 0H11v-25l151-195H24v-28h176v25L50-27h159V0" id="aN"/><g id="p"><use transform="matrix(0.05,0,0,0.05,0,0)" xlink:href="#ay"/><use transform="matrix(0.05,0,0,0.05,12.950000000000001,0)" xlink:href="#aC"/><use transform="matrix(0.05,0,0,0.05,24.950000000000003,0)" xlink:href="#ax"/><use transform="matrix(0.05,0,0,0.05,36.95,0)" xlink:href="#aM"/><use transform="matrix(0.05,0,0,0.05,46.95,0)" xlink:href="#az"/><use transform="matrix(0.05,0,0,0.05,51.95,0)" xlink:href="#aN"/><use transform="matrix(0.05,0,0,0.05,62.900000000000006,0)" xlink:href="#ax"/><use transform="matrix(0.05,0,0,0.05,74.9,0)" xlink:href="#ay"/></g><path fill="#008573" d="M16-82v-28h88v28H16" id="aO"/><g id="q"><use transform="matrix(0.05,0,0,0.05,0,0)" xlink:href="#aK"/><use transform="matrix(0.05,0,0,0.05,12,0)" xlink:href="#ay"/><use transform="matrix(0.05,0,0,0.05,24.950000000000003,0)" xlink:href="#aC"/><use transform="matrix(0.05,0,0,0.05,36.95,0)" xlink:href="#aO"/><use transform="matrix(0.05,0,0,0.05,42.900000000000006,0)" xlink:href="#az"/><use transform="matrix(0.05,0,0,0.05,47.900000000000006,0)" xlink:href="#aD"/><use transform="matrix(0.05,0,0,0.05,60.85,0)" xlink:href="#aw"/><use transform="matrix(0.05,0,0,0.05,72.85000000000001,0)" xlink:href="#aB"/><use transform="matrix(0.05,0,0,0.05,85.80000000000001,0)" xlink:href="#ay"/><use transform="matrix(0.05,0,0,0.05,98.75000000000001,0)" xlink:href="#az"/><use transform="matrix(0.05,0,0,0.05,103.75,0)" xlink:href="#aK"/><use transform="matrix(0.05,0,0,0.05,115.75,0)" xlink:href="#aB"/><use transform="matrix(0.05,0,0,0.05,128.70000000000002,0)" xlink:href="#az"/><use transform="matrix(0.05,0,0,0.05,133.70000000000002,0)" xlink:href="#aL"/><use transform="matrix(0.05,0,0,0.05,147.70000000000002,0)" xlink:href="#aD"/></g><g id="r"><use transform="matrix(0.05,0,0,0.05,0,0)" xlink:href="#aC"/><use transform="matrix(0.05,0,0,0.05,12,0)" xlink:href="#aD"/></g><path fill="#008573" d="M240 0l2-218c-23 76-54 145-80 218h-23L58-218 59 0H30v-248h44l77 211c21-75 51-140 76-211h43V0h-30" id="aP"/><g id="s"><use transform="matrix(0.05,0,0,0.05,0,0)" xlink:href="#aI"/><use transform="matrix(0.05,0,0,0.05,10.950000000000001,0)" xlink:href="#aA"/><use transform="matrix(0.05,0,0,0.05,24.950000000000003,0)" xlink:href="#ay"/><use transform="matrix(0.05,0,0,0.05,37.900000000000006,0)" xlink:href="#aP"/><use transform="matrix(0.05,0,0,0.05,52.85,0)" xlink:href="#av"/><use transform="matrix(0.05,0,0,0.05,65.80000000000001,0)" xlink:href="#aM"/><use transform="matrix(0.05,0,0,0.05,75.80000000000001,0)" xlink:href="#ax"/><use transform="matrix(0.05,0,0,0.05,87.80000000000001,0)" xlink:href="#ay"/><use transform="matrix(0.05,0,0,0.05,100.75000000000001,0)" xlink:href="#az"/><use transform="matrix(0.05,0,0,0.05,105.75,0)" xlink:href="#aA"/></g><g id="t"><use transform="matrix(0.05,0,0,0.05,0,0)" xlink:href="#aC"/><use transform="matrix(0.05,0,0,0.05,12,0)" xlink:href="#aD"/><use transform="matrix(0.05,0,0,0.05,24.950000000000003,0)" xlink:href="#aG"/><use transform="matrix(0.05,0,0,0.05,36.95,0)" xlink:href="#az"/><use transform="matrix(0.05,0,0,0.05,41.95,0)" xlink:href="#ax"/><use transform="matrix(0.05,0,0,0.05,53.95,0)" xlink:href="#ay"/></g><g id="u"><use transform="matrix(0.05,0,0,0.05,0,0)" xlink:href="#ay"/><use transform="matrix(0.05,0,0,0.05,12.950000000000001,0)" xlink:href="#aC"/><use transform="matrix(0.05,0,0,0.05,24.950000000000003,0)" xlink:href="#aG"/><use transform="matrix(0.05,0,0,0.05,36.95,0)" xlink:href="#az"/><use transform="matrix(0.05,0,0,0.05,41.95,0)" xlink:href="#aw"/><use transform="matrix(0.05,0,0,0.05,53.95,0)" xlink:href="#ax"/><use transform="matrix(0.05,0,0,0.05,65.95,0)" xlink:href="#ay"/></g><g id="v"><use transform="matrix(0.05,0,0,0.05,0,0)" xlink:href="#aG"/><use transform="matrix(0.05,0,0,0.05,12,0)" xlink:href="#aC"/><use transform="matrix(0.05,0,0,0.05,24,0)" xlink:href="#ay"/><use transform="matrix(0.05,0,0,0.05,36.95,0)" xlink:href="#az"/><use transform="matrix(0.05,0,0,0.05,41.95,0)" xlink:href="#aI"/><use transform="matrix(0.05,0,0,0.05,52.900000000000006,0)" xlink:href="#az"/><use transform="matrix(0.05,0,0,0.05,57.900000000000006,0)" xlink:href="#aB"/><use transform="matrix(0.05,0,0,0.05,70.85000000000001,0)" xlink:href="#ax"/><use transform="matrix(0.05,0,0,0.05,82.85000000000001,0)" xlink:href="#ay"/></g><g id="w"><use transform="matrix(0.05,0,0,0.05,0,0)" xlink:href="#aP"/><use transform="matrix(0.05,0,0,0.05,14.950000000000001,0)" xlink:href="#ax"/><use transform="matrix(0.05,0,0,0.05,25.6,0)" xlink:href="#aE"/><use transform="matrix(0.05,0,0,0.05,36.550000000000004,0)" xlink:href="#aC"/><use transform="matrix(0.05,0,0,0.05,48.550000000000004,0)" xlink:href="#ay"/><use transform="matrix(0.05,0,0,0.05,61.5,0)" xlink:href="#az"/><use transform="matrix(0.05,0,0,0.05,66.5,0)" xlink:href="#ax"/><use transform="matrix(0.05,0,0,0.05,78.5,0)" xlink:href="#aw"/></g><path fill="#008573" d="M160-131c35 5 61 23 61 61C221 17 115-2 30 0v-248c76 3 177-17 177 60 0 33-19 50-47 57zm-97-11c50-1 110 9 110-42 0-47-63-36-110-37v79zm0 115c55-2 124 14 124-45 0-56-70-42-124-44v89" id="aQ"/><g id="x"><use transform="matrix(0.05,0,0,0.05,0,0)" xlink:href="#aK"/><use transform="matrix(0.05,0,0,0.05,12,0)" xlink:href="#av"/><use transform="matrix(0.05,0,0,0.05,24.950000000000003,0)" xlink:href="#aQ"/><use transform="matrix(0.05,0,0,0.05,36.95,0)" xlink:href="#aM"/><use transform="matrix(0.05,0,0,0.05,46.95,0)" xlink:href="#az"/><use transform="matrix(0.05,0,0,0.05,51.95,0)" xlink:href="#aB"/><use transform="matrix(0.05,0,0,0.05,64.9,0)" xlink:href="#ax"/><use transform="matrix(0.05,0,0,0.05,76.9,0)" xlink:href="#ay"/></g><g id="y"><use transform="matrix(0.05,0,0,0.05,0,0)" xlink:href="#aP"/><use transform="matrix(0.05,0,0,0.05,14.950000000000001,0)" xlink:href="#ax"/><use transform="matrix(0.05,0,0,0.05,25.6,0)" xlink:href="#aE"/><use transform="matrix(0.05,0,0,0.05,36.550000000000004,0)" xlink:href="#aC"/><use transform="matrix(0.05,0,0,0.05,48.550000000000004,0)" xlink:href="#ay"/><use transform="matrix(0.05,0,0,0.05,61.5,0)" xlink:href="#az"/><use transform="matrix(0.05,0,0,0.05,66.5,0)" xlink:href="#ax"/><use transform="matrix(0.05,0,0,0.05,78.5,0)" xlink:href="#aw"/></g><path fill="#008573" d="M137-103V0h-34v-103L8-248h37l75 118 75-118h37" id="aR"/><use transform="matrix(0.05,0,0,0.05,0,0)" xlink:href="#aR" id="z"/><g id="A"><use transform="matrix(0.05,0,0,0.05,0,0)" xlink:href="#aJ"/><use transform="matrix(0.05,0,0,0.05,12.950000000000001,0)" xlink:href="#aA"/><use transform="matrix(0.05,0,0,0.05,26.950000000000003,0)" xlink:href="#ay"/><use transform="matrix(0.05,0,0,0.05,39.900000000000006,0)" xlink:href="#ax"/><use transform="matrix(0.05,0,0,0.05,51.900000000000006,0)" xlink:href="#ay"/><use transform="matrix(0.05,0,0,0.05,64.85000000000001,0)" xlink:href="#az"/><use transform="matrix(0.05,0,0,0.05,69.85000000000001,0)" xlink:href="#aA"/><use transform="matrix(0.05,0,0,0.05,83.85000000000001,0)" xlink:href="#aw"/></g><g id="B"><use transform="matrix(0.05,0,0,0.05,0,0)" xlink:href="#aJ"/><use transform="matrix(0.05,0,0,0.05,12.950000000000001,0)" xlink:href="#ax"/><use transform="matrix(0.05,0,0,0.05,24.950000000000003,0)" xlink:href="#aQ"/><use transform="matrix(0.05,0,0,0.05,36.95,0)" xlink:href="#az"/><use transform="matrix(0.05,0,0,0.05,41.95,0)" xlink:href="#aM"/><use transform="matrix(0.05,0,0,0.05,51.95,0)" xlink:href="#az"/><use transform="matrix(0.05,0,0,0.05,56.95,0)" xlink:href="#aE"/><use transform="matrix(0.05,0,0,0.05,66.55,0)" xlink:href="#ax"/><use transform="matrix(0.05,0,0,0.05,78.55,0)" xlink:href="#aF"/><use transform="matrix(0.05,0,0,0.05,91.5,0)" xlink:href="#aA"/><use transform="matrix(0.05,0,0,0.05,105.5,0)" xlink:href="#aw"/></g><path fill="#008573" d="M107 61C57 61 25 39 23-9c-2-65 71-58 78-115h30c1 64-76 54-76 114 0 30 21 42 52 43 32 0 53-17 56-46l32 2c-6 46-36 72-88 72zm26-251v35H99v-35h34" id="aS"/><g id="C"><use transform="matrix(0.052083333333333336,0,0,0.052083333333333336,0,0)" xlink:href="#aS"/><use transform="matrix(0.052083333333333336,0,0,0.052083333333333336,11.40625,0)" xlink:href="#aP"/><use transform="matrix(0.052083333333333336,0,0,0.052083333333333336,26.979166666666668,0)" xlink:href="#ax"/><use transform="matrix(0.052083333333333336,0,0,0.052083333333333336,38.07291666666667,0)" xlink:href="#aE"/><use transform="matrix(0.052083333333333336,0,0,0.052083333333333336,49.47916666666667,0)" xlink:href="#aC"/><use transform="matrix(0.052083333333333336,0,0,0.052083333333333336,61.97916666666667,0)" xlink:href="#ay"/><use transform="matrix(0.052083333333333336,0,0,0.052083333333333336,75.46875,0)" xlink:href="#az"/><use transform="matrix(0.052083333333333336,0,0,0.052083333333333336,80.67708333333333,0)" xlink:href="#ax"/><use transform="matrix(0.052083333333333336,0,0,0.052083333333333336,93.17708333333333,0)" xlink:href="#aw"/></g><path fill="#008573" d="M103-251c84 0 111 97 45 133-19 10-37 24-39 52H78c0-63 77-55 77-114 0-30-21-42-52-43-32 0-53 17-56 46l-32-2c7-45 34-72 88-72zM77 0v-35h34V0H77" id="aT"/><g id="D"><use transform="matrix(0.052083333333333336,0,0,0.052083333333333336,0,0)" xlink:href="#aF"/><use transform="matrix(0.052083333333333336,0,0,0.052083333333333336,13.489583333333334,0)" xlink:href="#az"/><use transform="matrix(0.052083333333333336,0,0,0.052083333333333336,18.697916666666668,0)" xlink:href="#aw"/><use transform="matrix(0.052083333333333336,0,0,0.052083333333333336,31.197916666666668,0)" xlink:href="#aK"/><use transform="matrix(0.052083333333333336,0,0,0.052083333333333336,43.69791666666667,0)" xlink:href="#aA"/><use transform="matrix(0.052083333333333336,0,0,0.052083333333333336,58.28125,0)" xlink:href="#aD"/><use transform="matrix(0.052083333333333336,0,0,0.052083333333333336,71.77083333333334,0)" xlink:href="#az"/><use transform="matrix(0.052083333333333336,0,0,0.052083333333333336,76.97916666666667,0)" xlink:href="#aQ"/><use transform="matrix(0.052083333333333336,0,0,0.052083333333333336,89.47916666666667,0)" xlink:href="#aM"/><use transform="matrix(0.052083333333333336,0,0,0.052083333333333336,99.89583333333334,0)" xlink:href="#aC"/><use transform="matrix(0.052083333333333336,0,0,0.052083333333333336,112.39583333333334,0)" xlink:href="#aw"/><use transform="matrix(0.052083333333333336,0,0,0.052083333333333336,124.89583333333334,0)" xlink:href="#aT"/></g><path d="M190 0L58-211 59 0H30v-248h39L202-35l-2-213h31V0h-41" id="aU"/><path d="M140-251c81 0 123 46 123 126C263-46 219 4 140 4 59 4 17-45 17-125s42-126 123-126zm0 227c63 0 89-41 89-101s-29-99-89-99c-61 0-89 39-89 99S79-25 140-24" id="aV"/><g id="E"><use transform="matrix(0.05,0,0,0.05,0,0)" xlink:href="#aU"/><use transform="matrix(0.05,0,0,0.05,12.950000000000001,0)" xlink:href="#aV"/></g><path d="M33 0v-248h34V0H33" id="aW"/><path d="M185-189c-5-48-123-54-124 2 14 75 158 14 163 119 3 78-121 87-175 55-17-10-28-26-33-46l33-7c5 56 141 63 141-1 0-78-155-14-162-118-5-82 145-84 179-34 5 7 8 16 11 25" id="aX"/><path d="M212-179c-10-28-35-45-73-45-59 0-87 40-87 99 0 60 29 101 89 101 43 0 62-24 78-52l27 14C228-24 195 4 139 4 59 4 22-46 18-125c-6-104 99-153 187-111 19 9 31 26 39 46" id="aY"/><path d="M233-177c-1 41-23 64-60 70L243 0h-38l-65-103H63V0H30v-248c88 3 205-21 203 71zM63-129c60-2 137 13 137-47 0-61-80-42-137-45v92" id="aZ"/><path d="M160-131c35 5 61 23 61 61C221 17 115-2 30 0v-248c76 3 177-17 177 60 0 33-19 50-47 57zm-97-11c50-1 110 9 110-42 0-47-63-36-110-37v79zm0 115c55-2 124 14 124-45 0-56-70-42-124-44v89" id="ba"/><path d="M30 0v-248h187v28H63v79h144v27H63v87h162V0H30" id="bb"/><g id="F"><use transform="matrix(0.05,0,0,0.05,0,0)" xlink:href="#aW"/><use transform="matrix(0.05,0,0,0.05,5,0)" xlink:href="#aU"/><use transform="matrix(0.05,0,0,0.05,17.950000000000003,0)" xlink:href="#aX"/><use transform="matrix(0.05,0,0,0.05,29.950000000000003,0)" xlink:href="#aY"/><use transform="matrix(0.05,0,0,0.05,42.900000000000006,0)" xlink:href="#aZ"/><use transform="matrix(0.05,0,0,0.05,55.85,0)" xlink:href="#aW"/><use transform="matrix(0.05,0,0,0.05,60.85,0)" xlink:href="#ba"/><use transform="matrix(0.05,0,0,0.05,72.85000000000001,0)" xlink:href="#aW"/><use transform="matrix(0.05,0,0,0.05,77.85000000000001,0)" xlink:href="#aZ"/><use transform="matrix(0.05,0,0,0.05,90.80000000000001,0)" xlink:href="#aX"/><use transform="matrix(0.05,0,0,0.05,102.80000000000001,0)" xlink:href="#bb"/></g><path fill="#ff8f8f" d="M175 0L67-191c6 58 2 128 3 191H24v-248h59L193-55c-6-58-2-129-3-193h46V0h-61" id="bc"/><path fill="#ff8f8f" d="M140-251c80 0 125 45 125 126S219 4 139 4C58 4 15-44 15-125s44-126 125-126zm-1 214c52 0 73-35 73-88 0-50-21-86-72-86-52 0-73 35-73 86s22 88 72 88" id="bd"/><g id="G"><use transform="matrix(0.04938271604938272,0,0,0.04938271604938272,0,0)" xlink:href="#bc"/><use transform="matrix(0.04938271604938272,0,0,0.04938271604938272,12.790123456790125,0)" xlink:href="#bd"/></g><path fill="#ff8f8f" d="M24-248c120-7 223 5 221 122C244-46 201 0 124 0H24v-248zM76-40c74 7 117-18 117-86 0-67-45-88-117-82v168" id="be"/><path fill="#ff8f8f" d="M24 0v-248h52V0H24" id="bf"/><path fill="#ff8f8f" d="M169-182c-1-43-94-46-97-3 18 66 151 10 154 114 3 95-165 93-204 36-6-8-10-19-12-30l50-8c3 46 112 56 116 5-17-69-150-10-154-114-4-87 153-88 188-35 5 8 8 18 10 28" id="bg"/><path fill="#ff8f8f" d="M24-248c93 1 206-16 204 79-1 75-69 88-152 82V0H24v-248zm52 121c47 0 100 7 100-41 0-47-54-39-100-39v80" id="bh"/><path fill="#ff8f8f" d="M182-130c37 4 62 22 62 59C244 23 116-4 24 0v-248c84 5 203-23 205 63 0 31-19 50-47 55zM76-148c40-3 101 13 101-30 0-44-60-28-101-31v61zm0 110c48-3 116 14 116-37 0-48-69-32-116-35v72" id="bi"/><path fill="#ff8f8f" d="M24 0v-248h52v208h133V0H24" id="bj"/><path fill="#ff8f8f" d="M24 0v-248h195v40H76v63h132v40H76v65h150V0H24" id="bk"/><g id="H"><use transform="matrix(0.04938271604938272,0,0,0.04938271604938272,0,0)" xlink:href="#be"/><use transform="matrix(0.04938271604938272,0,0,0.04938271604938272,12.790123456790125,0)" xlink:href="#bf"/><use transform="matrix(0.04938271604938272,0,0,0.04938271604938272,17.7283950617284,0)" xlink:href="#bg"/><use transform="matrix(0.04938271604938272,0,0,0.04938271604938272,29.580246913580254,0)" xlink:href="#bh"/><use transform="matrix(0.04938271604938272,0,0,0.04938271604938272,41.43209876543211,0)" xlink:href="#bd"/><use transform="matrix(0.04938271604938272,0,0,0.04938271604938272,55.25925925925927,0)" xlink:href="#bc"/><use transform="matrix(0.04938271604938272,0,0,0.04938271604938272,68.0493827160494,0)" xlink:href="#bf"/><use transform="matrix(0.04938271604938272,0,0,0.04938271604938272,72.98765432098767,0)" xlink:href="#bi"/><use transform="matrix(0.04938271604938272,0,0,0.04938271604938272,85.7777777777778,0)" xlink:href="#bj"/><use transform="matrix(0.04938271604938272,0,0,0.04938271604938272,96.59259259259261,0)" xlink:href="#bk"/><use transform="matrix(0.04938271604938272,0,0,0.04938271604938272,108.44444444444446,0)" xlink:href="#bg"/></g><path fill="#54c45e" d="M169-182c-1-43-94-46-97-3 18 66 151 10 154 114 3 95-165 93-204 36-6-8-10-19-12-30l50-8c3 46 112 56 116 5-17-69-150-10-154-114-4-87 153-88 188-35 5 8 8 18 10 28" id="bl"/><path fill="#54c45e" d="M18-269v-5l45-45h45v8l-60 42H18zM24 0v-248h52V0H24" id="bm"/><g id="I"><use transform="matrix(0.04938271604938272,0,0,0.04938271604938272,0,0)" xlink:href="#bl"/><use transform="matrix(0.04938271604938272,0,0,0.04938271604938272,11.851851851851853,0)" xlink:href="#bm"/></g><path fill="#54c45e" d="M24-248c120-7 223 5 221 122C244-46 201 0 124 0H24v-248zM76-40c74 7 117-18 117-86 0-67-45-88-117-82v168" id="bn"/><path fill="#54c45e" d="M24 0v-248h52V0H24" id="bo"/><path fill="#54c45e" d="M24-248c93 1 206-16 204 79-1 75-69 88-152 82V0H24v-248zm52 121c47 0 100 7 100-41 0-47-54-39-100-39v80" id="bp"/><path fill="#54c45e" d="M140-251c80 0 125 45 125 126S219 4 139 4C58 4 15-44 15-125s44-126 125-126zm-1 214c52 0 73-35 73-88 0-50-21-86-72-86-52 0-73 35-73 86s22 88 72 88" id="bq"/><path fill="#54c45e" d="M175 0L67-191c6 58 2 128 3 191H24v-248h59L193-55c-6-58-2-129-3-193h46V0h-61" id="br"/><path fill="#54c45e" d="M182-130c37 4 62 22 62 59C244 23 116-4 24 0v-248c84 5 203-23 205 63 0 31-19 50-47 55zM76-148c40-3 101 13 101-30 0-44-60-28-101-31v61zm0 110c48-3 116 14 116-37 0-48-69-32-116-35v72" id="bs"/><path fill="#54c45e" d="M24 0v-248h52v208h133V0H24" id="bt"/><path fill="#54c45e" d="M24 0v-248h195v40H76v63h132v40H76v65h150V0H24" id="bu"/><g id="J"><use transform="matrix(0.04938271604938272,0,0,0.04938271604938272,0,0)" xlink:href="#bn"/><use transform="matrix(0.04938271604938272,0,0,0.04938271604938272,12.790123456790125,0)" xlink:href="#bo"/><use transform="matrix(0.04938271604938272,0,0,0.04938271604938272,17.7283950617284,0)" xlink:href="#bl"/><use transform="matrix(0.04938271604938272,0,0,0.04938271604938272,29.580246913580254,0)" xlink:href="#bp"/><use transform="matrix(0.04938271604938272,0,0,0.04938271604938272,41.43209876543211,0)" xlink:href="#bq"/><use transform="matrix(0.04938271604938272,0,0,0.04938271604938272,55.25925925925927,0)" xlink:href="#br"/><use transform="matrix(0.04938271604938272,0,0,0.04938271604938272,68.0493827160494,0)" xlink:href="#bo"/><use transform="matrix(0.04938271604938272,0,0,0.04938271604938272,72.98765432098767,0)" xlink:href="#bs"/><use transform="matrix(0.04938271604938272,0,0,0.04938271604938272,85.7777777777778,0)" xlink:href="#bt"/><use transform="matrix(0.04938271604938272,0,0,0.04938271604938272,96.59259259259261,0)" xlink:href="#bu"/><use transform="matrix(0.04938271604938272,0,0,0.04938271604938272,108.44444444444446,0)" xlink:href="#bl"/></g><path d="M143 4C61 4 22-44 18-125c-5-107 100-154 193-111 17 8 29 25 37 43l-32 9c-13-25-37-40-76-40-61 0-88 39-88 99 0 61 29 100 91 101 35 0 62-11 79-27v-45h-74v-28h105v86C228-13 192 4 143 4" id="bv"/><path d="M205 0l-28-72H64L36 0H1l101-248h38L239 0h-34zm-38-99l-47-123c-12 45-31 82-46 123h93" id="bw"/><g id="K"><use transform="matrix(0.05,0,0,0.05,0,0)" xlink:href="#bv"/><use transform="matrix(0.05,0,0,0.05,14,0)" xlink:href="#bb"/><use transform="matrix(0.05,0,0,0.05,26,0)" xlink:href="#aU"/><use transform="matrix(0.05,0,0,0.05,38.95,0)" xlink:href="#bb"/><use transform="matrix(0.05,0,0,0.05,50.95,0)" xlink:href="#aZ"/><use transform="matrix(0.05,0,0,0.05,63.900000000000006,0)" xlink:href="#bw"/><use transform="matrix(0.05,0,0,0.05,75.9,0)" xlink:href="#aZ"/></g><path d="M109-269c9-18 26-28 38-43h37v5l-55 38h-20zm31 18c81 0 123 46 123 126C263-46 219 4 140 4 59 4 17-45 17-125s42-126 123-126zm0 227c63 0 89-41 89-101s-29-99-89-99c-61 0-89 39-89 99S79-25 140-24" id="bx"/><path d="M30-248c118-7 216 8 213 122C240-48 200 0 122 0H30v-248zM63-27c89 8 146-16 146-99s-60-101-146-95v194" id="by"/><g id="L"><use transform="matrix(0.05,0,0,0.05,0,0)" xlink:href="#aY"/><use transform="matrix(0.05,0,0,0.05,12.950000000000001,0)" xlink:href="#bx"/><use transform="matrix(0.05,0,0,0.05,26.950000000000003,0)" xlink:href="#by"/><use transform="matrix(0.05,0,0,0.05,39.900000000000006,0)" xlink:href="#aW"/><use transform="matrix(0.05,0,0,0.05,44.900000000000006,0)" xlink:href="#bv"/><use transform="matrix(0.05,0,0,0.05,58.900000000000006,0)" xlink:href="#aV"/></g><path d="M30-248c87 1 191-15 191 75 0 78-77 80-158 76V0H30v-248zm33 125c57 0 124 11 124-50 0-59-68-47-124-48v98" id="bz"/><path d="M127-220V0H93v-220H8v-28h204v28h-85" id="bA"/><g id="M"><use transform="matrix(0.05,0,0,0.05,0,0)" xlink:href="#aY"/><use transform="matrix(0.05,0,0,0.05,12.950000000000001,0)" xlink:href="#bz"/><use transform="matrix(0.05,0,0,0.05,24.950000000000003,0)" xlink:href="#bA"/></g><path d="M30 0v-248h33v221h125V0H30" id="bB"/><path d="M209 0H11v-25l151-195H24v-28h176v25L50-27h159V0" id="bC"/><g id="N"><use transform="matrix(0.05,0,0,0.05,0,0)" xlink:href="#aZ"/><use transform="matrix(0.05,0,0,0.05,12.950000000000001,0)" xlink:href="#bb"/><use transform="matrix(0.05,0,0,0.05,24.950000000000003,0)" xlink:href="#bw"/><use transform="matrix(0.05,0,0,0.05,36.95,0)" xlink:href="#bB"/><use transform="matrix(0.05,0,0,0.05,46.95,0)" xlink:href="#aW"/><use transform="matrix(0.05,0,0,0.05,51.95,0)" xlink:href="#bC"/><use transform="matrix(0.05,0,0,0.05,62.900000000000006,0)" xlink:href="#bw"/><use transform="matrix(0.05,0,0,0.05,74.9,0)" xlink:href="#aZ"/></g><g id="O"><use transform="matrix(0.05,0,0,0.05,0,0)" xlink:href="#by"/><use transform="matrix(0.05,0,0,0.05,12.950000000000001,0)" xlink:href="#bb"/><use transform="matrix(0.05,0,0,0.05,24.950000000000003,0)" xlink:href="#bz"/><use transform="matrix(0.05,0,0,0.05,36.95,0)" xlink:href="#bx"/><use transform="matrix(0.05,0,0,0.05,50.95,0)" xlink:href="#aX"/><use transform="matrix(0.05,0,0,0.05,62.95,0)" xlink:href="#aW"/><use transform="matrix(0.05,0,0,0.05,67.95,0)" xlink:href="#bA"/><use transform="matrix(0.05,0,0,0.05,78.55000000000001,0)" xlink:href="#aV"/></g><g id="P"><use transform="matrix(0.05,0,0,0.05,0,0)" xlink:href="#aY"/><use transform="matrix(0.05,0,0,0.05,12.950000000000001,0)" xlink:href="#aV"/><use transform="matrix(0.05,0,0,0.05,26.950000000000003,0)" xlink:href="#aU"/><use transform="matrix(0.05,0,0,0.05,39.900000000000006,0)" xlink:href="#bA"/><use transform="matrix(0.05,0,0,0.05,49.50000000000001,0)" xlink:href="#bw"/><use transform="matrix(0.05,0,0,0.05,61.5,0)" xlink:href="#ba"/><use transform="matrix(0.05,0,0,0.05,73.5,0)" xlink:href="#aW"/><use transform="matrix(0.05,0,0,0.05,78.5,0)" xlink:href="#bB"/><use transform="matrix(0.05,0,0,0.05,88.5,0)" xlink:href="#aW"/><use transform="matrix(0.05,0,0,0.05,93.5,0)" xlink:href="#bC"/><use transform="matrix(0.05,0,0,0.05,104.45,0)" xlink:href="#bw"/><use transform="matrix(0.05,0,0,0.05,116.45,0)" xlink:href="#aZ"/></g><path d="M240 0l2-218c-23 76-54 145-80 218h-23L58-218 59 0H30v-248h44l77 211c21-75 51-140 76-211h43V0h-30" id="bD"/><g id="Q"><use transform="matrix(0.05,0,0,0.05,0,0)" xlink:href="#bD"/><use transform="matrix(0.05,0,0,0.05,14.950000000000001,0)" xlink:href="#bw"/><use transform="matrix(0.05,0,0,0.05,25.6,0)" xlink:href="#bA"/><use transform="matrix(0.05,0,0,0.05,36.550000000000004,0)" xlink:href="#bb"/><use transform="matrix(0.05,0,0,0.05,48.550000000000004,0)" xlink:href="#aZ"/><use transform="matrix(0.05,0,0,0.05,61.5,0)" xlink:href="#aW"/><use transform="matrix(0.05,0,0,0.05,66.5,0)" xlink:href="#bw"/><use transform="matrix(0.05,0,0,0.05,78.5,0)" xlink:href="#aX"/></g><path d="M197 0v-115H63V0H30v-248h33v105h134v-105h34V0h-34" id="bE"/><g id="R"><use transform="matrix(0.05,0,0,0.05,0,0)" xlink:href="#bE"/><use transform="matrix(0.05,0,0,0.05,12.950000000000001,0)" xlink:href="#bw"/><use transform="matrix(0.05,0,0,0.05,24.950000000000003,0)" xlink:href="#ba"/><use transform="matrix(0.05,0,0,0.05,36.95,0)" xlink:href="#aW"/><use transform="matrix(0.05,0,0,0.05,41.95,0)" xlink:href="#bB"/><use transform="matrix(0.05,0,0,0.05,51.95,0)" xlink:href="#aW"/><use transform="matrix(0.05,0,0,0.05,56.95,0)" xlink:href="#bA"/><use transform="matrix(0.05,0,0,0.05,66.55,0)" xlink:href="#bw"/><use transform="matrix(0.05,0,0,0.05,78.55,0)" xlink:href="#aZ"/></g><g id="S"><use transform="matrix(0.05,0,0,0.05,0,0)" xlink:href="#aX"/><use transform="matrix(0.05,0,0,0.05,12,0)" xlink:href="#aW"/><use transform="matrix(0.05,0,0,0.05,17,0)" xlink:href="#aX"/><use transform="matrix(0.05,0,0,0.05,29,0)" xlink:href="#bA"/><use transform="matrix(0.05,0,0,0.05,39.95,0)" xlink:href="#bb"/><use transform="matrix(0.05,0,0,0.05,51.95,0)" xlink:href="#bD"/><use transform="matrix(0.05,0,0,0.05,66.9,0)" xlink:href="#bw"/></g><g id="T"><use transform="matrix(0.05,0,0,0.05,0,0)" xlink:href="#by"/><use transform="matrix(0.05,0,0,0.05,12.950000000000001,0)" xlink:href="#bb"/></g><g id="U"><use transform="matrix(0.05,0,0,0.05,0,0)" xlink:href="#aW"/><use transform="matrix(0.05,0,0,0.05,5,0)" xlink:href="#aU"/><use transform="matrix(0.05,0,0,0.05,17.950000000000003,0)" xlink:href="#aX"/><use transform="matrix(0.05,0,0,0.05,29.950000000000003,0)" xlink:href="#aY"/><use transform="matrix(0.05,0,0,0.05,42.900000000000006,0)" xlink:href="#aZ"/><use transform="matrix(0.05,0,0,0.05,55.85,0)" xlink:href="#aW"/><use transform="matrix(0.05,0,0,0.05,60.85,0)" xlink:href="#bz"/><use transform="matrix(0.05,0,0,0.05,72.85000000000001,0)" xlink:href="#aY"/><use transform="matrix(0.05,0,0,0.05,85.80000000000001,0)" xlink:href="#aW"/><use transform="matrix(0.05,0,0,0.05,90.80000000000001,0)" xlink:href="#bx"/><use transform="matrix(0.05,0,0,0.05,104.80000000000001,0)" xlink:href="#aU"/></g><g id="V"><use transform="matrix(0.05,0,0,0.05,0,0)" xlink:href="#aX"/><use transform="matrix(0.05,0,0,0.05,12,0)" xlink:href="#bb"/><use transform="matrix(0.05,0,0,0.05,24,0)" xlink:href="#bB"/><use transform="matrix(0.05,0,0,0.05,34,0)" xlink:href="#bb"/><use transform="matrix(0.05,0,0,0.05,46,0)" xlink:href="#aY"/><use transform="matrix(0.05,0,0,0.05,58.95,0)" xlink:href="#aY"/><use transform="matrix(0.05,0,0,0.05,71.9,0)" xlink:href="#aW"/><use transform="matrix(0.05,0,0,0.05,76.9,0)" xlink:href="#aV"/><use transform="matrix(0.05,0,0,0.05,90.9,0)" xlink:href="#aU"/><use transform="matrix(0.05,0,0,0.05,103.85000000000001,0)" xlink:href="#bw"/><use transform="matrix(0.05,0,0,0.05,115.85000000000001,0)" xlink:href="#aZ"/></g><g id="W"><use transform="matrix(0.05,0,0,0.05,0,0)" xlink:href="#aW"/><use transform="matrix(0.05,0,0,0.05,5,0)" xlink:href="#aU"/><use transform="matrix(0.05,0,0,0.05,17.950000000000003,0)" xlink:href="#aX"/><use transform="matrix(0.05,0,0,0.05,29.950000000000003,0)" xlink:href="#aY"/><use transform="matrix(0.05,0,0,0.05,42.900000000000006,0)" xlink:href="#aZ"/><use transform="matrix(0.05,0,0,0.05,55.85,0)" xlink:href="#aW"/><use transform="matrix(0.05,0,0,0.05,60.85,0)" xlink:href="#ba"/><use transform="matrix(0.05,0,0,0.05,72.85000000000001,0)" xlink:href="#aW"/><use transform="matrix(0.05,0,0,0.05,77.85000000000001,0)" xlink:href="#aZ"/><use transform="matrix(0.05,0,0,0.05,90.80000000000001,0)" xlink:href="#aX"/><use transform="matrix(0.05,0,0,0.05,102.80000000000001,0)" xlink:href="#bb"/></g><g id="X"><use transform="matrix(0.06172839506172839,0,0,0.06172839506172839,0,0)" xlink:href="#aw"/><use transform="matrix(0.06172839506172839,0,0,0.06172839506172839,14.814814814814813,0)" xlink:href="#aA"/><use transform="matrix(0.06172839506172839,0,0,0.06172839506172839,32.09876543209876,0)" xlink:href="#aM"/><use transform="matrix(0.06172839506172839,0,0,0.06172839506172839,44.444444444444436,0)" xlink:href="#az"/><use transform="matrix(0.06172839506172839,0,0,0.06172839506172839,50.61728395061728,0)" xlink:href="#aB"/><use transform="matrix(0.06172839506172839,0,0,0.06172839506172839,66.60493827160494,0)" xlink:href="#az"/><use transform="matrix(0.06172839506172839,0,0,0.06172839506172839,72.77777777777777,0)" xlink:href="#aE"/><use transform="matrix(0.06172839506172839,0,0,0.06172839506172839,84.62962962962962,0)" xlink:href="#ax"/><use transform="matrix(0.06172839506172839,0,0,0.06172839506172839,99.44444444444443,0)" xlink:href="#ay"/></g><g id="Y"><use transform="matrix(0.06172839506172839,0,0,0.06172839506172839,0,0)" xlink:href="#aB"/><use transform="matrix(0.06172839506172839,0,0,0.06172839506172839,15.987654320987653,0)" xlink:href="#aL"/><use transform="matrix(0.06172839506172839,0,0,0.06172839506172839,33.2716049382716,0)" xlink:href="#aF"/><use transform="matrix(0.06172839506172839,0,0,0.06172839506172839,49.25925925925925,0)" xlink:href="#az"/><use transform="matrix(0.06172839506172839,0,0,0.06172839506172839,55.432098765432094,0)" xlink:href="#aH"/><use transform="matrix(0.06172839506172839,0,0,0.06172839506172839,72.71604938271605,0)" xlink:href="#aA"/></g><g id="Z"><use transform="matrix(0.06172839506172839,0,0,0.06172839506172839,0,0)" xlink:href="#aH"/><use transform="matrix(0.06172839506172839,0,0,0.06172839506172839,17.28395061728395,0)" xlink:href="#aK"/><use transform="matrix(0.06172839506172839,0,0,0.06172839506172839,32.09876543209876,0)" xlink:href="#aE"/></g><g id="aa"><use transform="matrix(0.05,0,0,0.05,0,0)" xlink:href="#bz"/><use transform="matrix(0.05,0,0,0.05,12,0)" xlink:href="#aZ"/><use transform="matrix(0.05,0,0,0.05,24.950000000000003,0)" xlink:href="#bb"/><use transform="matrix(0.05,0,0,0.05,36.95,0)" xlink:href="#aX"/><use transform="matrix(0.05,0,0,0.05,48.95,0)" xlink:href="#bb"/><use transform="matrix(0.05,0,0,0.05,60.95,0)" xlink:href="#aU"/><use transform="matrix(0.05,0,0,0.05,73.9,0)" xlink:href="#bA"/><use transform="matrix(0.05,0,0,0.05,83.50000000000001,0)" xlink:href="#bw"/><use transform="matrix(0.05,0,0,0.05,95.50000000000001,0)" xlink:href="#aZ"/></g><path d="M232-93c-1 65-40 97-104 97C67 4 28-28 28-90v-158h33c8 89-33 224 67 224 102 0 64-133 71-224h33v155" id="bF"/><g id="ab"><use transform="matrix(0.05,0,0,0.05,0,0)" xlink:href="#by"/><use transform="matrix(0.05,0,0,0.05,12.950000000000001,0)" xlink:href="#aY"/><use transform="matrix(0.05,0,0,0.05,25.900000000000002,0)" xlink:href="#bF"/><use transform="matrix(0.05,0,0,0.05,38.85,0)" xlink:href="#bD"/><use transform="matrix(0.05,0,0,0.05,53.800000000000004,0)" xlink:href="#bb"/><use transform="matrix(0.05,0,0,0.05,65.80000000000001,0)" xlink:href="#aU"/><use transform="matrix(0.05,0,0,0.05,78.75000000000001,0)" xlink:href="#bA"/><use transform="matrix(0.05,0,0,0.05,89.35000000000002,0)" xlink:href="#aV"/><use transform="matrix(0.05,0,0,0.05,103.35000000000002,0)" xlink:href="#aX"/></g><path d="M137 0h-34L2-248h35l83 218 83-218h36" id="bG"/><path d="M63-220v92h138v28H63V0H30v-248h175v28H63" id="bH"/><g id="ac"><use transform="matrix(0.05,0,0,0.05,0,0)" xlink:href="#bG"/><use transform="matrix(0.05,0,0,0.05,12,0)" xlink:href="#bb"/><use transform="matrix(0.05,0,0,0.05,24,0)" xlink:href="#aZ"/><use transform="matrix(0.05,0,0,0.05,36.95,0)" xlink:href="#aW"/><use transform="matrix(0.05,0,0,0.05,41.95,0)" xlink:href="#bH"/><use transform="matrix(0.05,0,0,0.05,52.900000000000006,0)" xlink:href="#aW"/><use transform="matrix(0.05,0,0,0.05,57.900000000000006,0)" xlink:href="#aY"/><use transform="matrix(0.05,0,0,0.05,70.85000000000001,0)" xlink:href="#bw"/><use transform="matrix(0.05,0,0,0.05,82.85000000000001,0)" xlink:href="#aZ"/></g><g id="ad"><use transform="matrix(0.05,0,0,0.05,0,0)" xlink:href="#by"/><use transform="matrix(0.05,0,0,0.05,12.950000000000001,0)" xlink:href="#aV"/><use transform="matrix(0.05,0,0,0.05,26.950000000000003,0)" xlink:href="#aY"/><use transform="matrix(0.05,0,0,0.05,39.900000000000006,0)" xlink:href="#bF"/><use transform="matrix(0.05,0,0,0.05,52.85,0)" xlink:href="#bD"/><use transform="matrix(0.05,0,0,0.05,67.80000000000001,0)" xlink:href="#bb"/><use transform="matrix(0.05,0,0,0.05,79.80000000000001,0)" xlink:href="#aU"/><use transform="matrix(0.05,0,0,0.05,92.75000000000001,0)" xlink:href="#bA"/><use transform="matrix(0.05,0,0,0.05,103.35000000000002,0)" xlink:href="#aV"/><use transform="matrix(0.05,0,0,0.05,117.35000000000002,0)" xlink:href="#aX"/></g><g id="ae"><use transform="matrix(0.06172839506172839,0,0,0.06172839506172839,0,0)" xlink:href="#aG"/><use transform="matrix(0.06172839506172839,0,0,0.06172839506172839,13.148148148148147,0)" xlink:href="#ax"/><use transform="matrix(0.06172839506172839,0,0,0.06172839506172839,27.962962962962962,0)" xlink:href="#aM"/><use transform="matrix(0.06172839506172839,0,0,0.06172839506172839,40.30864197530864,0)" xlink:href="#az"/><use transform="matrix(0.06172839506172839,0,0,0.06172839506172839,46.48148148148148,0)" xlink:href="#aF"/><use transform="matrix(0.06172839506172839,0,0,0.06172839506172839,62.46913580246913,0)" xlink:href="#ax"/><use transform="matrix(0.06172839506172839,0,0,0.06172839506172839,77.28395061728395,0)" xlink:href="#ay"/></g><g id="af"><use transform="matrix(0.06172839506172839,0,0,0.06172839506172839,0,0)" xlink:href="#az"/><use transform="matrix(0.06172839506172839,0,0,0.06172839506172839,6.172839506172839,0)" xlink:href="#aD"/><use transform="matrix(0.06172839506172839,0,0,0.06172839506172839,22.160493827160494,0)" xlink:href="#aw"/><use transform="matrix(0.06172839506172839,0,0,0.06172839506172839,36.9753086419753,0)" xlink:href="#aB"/><use transform="matrix(0.06172839506172839,0,0,0.06172839506172839,52.962962962962955,0)" xlink:href="#ay"/><use transform="matrix(0.06172839506172839,0,0,0.06172839506172839,68.9506172839506,0)" xlink:href="#az"/><use transform="matrix(0.06172839506172839,0,0,0.06172839506172839,75.12345679012344,0)" xlink:href="#aK"/><use transform="matrix(0.06172839506172839,0,0,0.06172839506172839,89.93827160493825,0)" xlink:href="#aB"/><use transform="matrix(0.06172839506172839,0,0,0.06172839506172839,105.92592592592591,0)" xlink:href="#az"/><use transform="matrix(0.06172839506172839,0,0,0.06172839506172839,112.09876543209874,0)" xlink:href="#aL"/><use transform="matrix(0.06172839506172839,0,0,0.06172839506172839,129.38271604938268,0)" xlink:href="#aD"/></g><g id="ag"><use transform="matrix(0.06172839506172839,0,0,0.06172839506172839,0,0)" xlink:href="#aI"/><use transform="matrix(0.06172839506172839,0,0,0.06172839506172839,13.518518518518517,0)" xlink:href="#az"/><use transform="matrix(0.06172839506172839,0,0,0.06172839506172839,19.691358024691358,0)" xlink:href="#aD"/></g></defs></g></svg>